<svg xmlns="http://www.w3.org/2000/svg" xmlns:xlink="http://www.w3.org/1999/xlink" width="500" zoomAndPan="magnify" viewBox="0 0 375 374.999991" height="500" preserveAspectRatio="xMidYMid meet" version="1.0"><defs><g/><clipPath id="9d6af5e26f"><path d="M 55.542969 6.976562 L 319.449219 6.976562 L 319.449219 270.976562 L 55.542969 270.976562 Z M 55.542969 6.976562 " clip-rule="nonzero"/></clipPath></defs><g clip-path="url(#9d6af5e26f)"><path fill="#000000" d="M 187.542969 6.976562 C 260.328125 6.976562 319.542969 66.191406 319.542969 138.976562 C 319.542969 211.761719 260.328125 270.976562 187.542969 270.976562 C 114.757812 270.976562 55.542969 211.761719 55.542969 138.976562 C 55.542969 66.191406 114.757812 6.976562 187.542969 6.976562 Z M 112.578125 176.015625 C 112.558594 180.199219 114.207031 183.007812 117.921875 185.121094 C 142.730469 199.25 163.304688 211.09375 182.671875 222.390625 C 184.46875 223.441406 186.074219 223.835938 187.515625 223.835938 C 189.492188 223.835938 191.167969 223.089844 192.632812 222.238281 C 217.757812 207.675781 238.207031 195.917969 256.992188 185.234375 C 260.867188 183.03125 262.566406 180.09375 262.511719 175.714844 C 262.355469 163.589844 262.355469 114.605469 262.511719 101.894531 C 262.511719 101.890625 262.511719 101.890625 262.511719 101.890625 C 262.558594 97.695312 260.910156 94.878906 257.175781 92.746094 C 237.515625 81.546875 216.464844 69.445312 192.8125 55.738281 C 190.347656 54.3125 186.933594 53.007812 182.445312 55.628906 C 162.050781 67.519531 140.402344 79.976562 118.105469 92.660156 C 114.261719 94.84375 112.554688 97.769531 112.574219 102.136719 C 112.691406 125.988281 112.691406 150.84375 112.578125 176.015625 Z M 122.097656 99.683594 C 144.425781 86.988281 166.097656 74.511719 186.515625 62.609375 C 187.429688 62.074219 187.523438 62.015625 188.761719 62.730469 C 212.425781 76.445312 233.496094 88.558594 253.175781 99.769531 C 254.398438 100.464844 254.445312 100.640625 254.429688 101.796875 C 254.277344 114.546875 254.277344 163.65625 254.429688 175.816406 C 254.449219 177.167969 254.351562 177.441406 253 178.210938 C 234.195312 188.90625 213.722656 200.671875 188.582031 215.25 C 187.78125 215.710938 187.523438 215.75 187.496094 215.753906 C 187.5 215.753906 187.28125 215.722656 186.746094 215.414062 C 167.355469 204.101562 146.757812 192.242188 121.925781 178.097656 C 120.703125 177.40625 120.65625 177.230469 120.664062 176.054688 C 120.777344 150.859375 120.777344 125.976562 120.660156 102.097656 C 120.652344 100.730469 120.75 100.453125 122.097656 99.683594 Z M 185.46875 135.359375 C 183.816406 136.253906 183.199219 138.199219 183.609375 139.882812 C 183.859375 140.890625 184.476562 141.804688 185.464844 142.339844 L 202.957031 152.539062 C 197.671875 155.589844 192.636719 158.484375 187.53125 161.265625 C 181.066406 157.8125 174.921875 153.929688 168.386719 150.472656 C 166.179688 149.292969 162.5625 148.84375 159.914062 150.269531 C 154.628906 153.109375 149.527344 156.066406 144.125 159.203125 L 138.753906 162.3125 C 135.96875 163.851562 136.25 167.828125 138.773438 169.480469 C 139.871094 170.925781 145.699219 173.878906 147.300781 174.898438 C 158.875 181.589844 170.839844 188.511719 182.734375 195.125 C 184.058594 195.859375 185.769531 196.226562 187.496094 196.230469 C 189.308594 196.230469 191.140625 195.824219 192.574219 195.023438 C 205.8125 187.644531 219.730469 179.636719 233.933594 171.230469 C 236.597656 169.648438 238.71875 166.101562 238.761719 163.148438 C 238.964844 147.304688 238.96875 131.0625 238.765625 114.875 C 238.726562 111.832031 236.664062 108.246094 234.066406 106.710938 C 221.65625 99.359375 208.390625 91.710938 192.332031 82.648438 C 190.441406 81.582031 186.566406 80.574219 183.675781 82.207031 C 180.421875 84.03125 177.179688 85.867188 173.9375 87.710938 C 172.074219 88.769531 170.203125 89.835938 168.328125 90.910156 C 166.679688 91.851562 165.019531 92.800781 163.363281 93.75 C 161.675781 94.722656 159.992188 95.6875 158.300781 96.660156 C 154.722656 98.71875 151.113281 100.796875 147.441406 102.917969 L 138.207031 108.238281 C 135.546875 109.667969 135.539062 113.816406 138.207031 115.242188 C 138.207031 115.242188 138.3125 115.304688 138.484375 115.40625 C 142.503906 117.722656 146.652344 120.140625 150.765625 122.492188 C 151.46875 122.894531 152.183594 123.300781 152.882812 123.695312 C 155.359375 125.101562 157.824219 126.480469 160.199219 127.761719 C 163.023438 129.285156 166.597656 128.15625 168.261719 127.246094 C 174.304688 123.945312 180.328125 120.476562 186.160156 116.933594 C 187.351562 116.210938 187.464844 116.285156 188.347656 116.828125 C 193.015625 119.726562 197.757812 122.433594 202.769531 125.292969 Z M 192.609375 109.960938 C 199.046875 113.964844 206.074219 117.832031 212.871094 121.765625 C 215.523438 123.1875 215.523438 127.324219 212.882812 128.757812 L 195.53125 138.859375 L 213.058594 149.074219 C 215.707031 150.515625 215.6875 154.652344 213.03125 156.070312 L 207.667969 159.160156 C 201.742188 162.582031 196.144531 165.808594 190.378906 168.925781 C 187.738281 170.34375 184.757812 169.019531 182.742188 167.898438 C 178.773438 165.808594 174.894531 163.363281 170.953125 161.105469 C 168.585938 159.753906 166.207031 158.457031 163.75 157.390625 C 158.605469 160.152344 153.589844 163.0625 148.289062 166.140625 L 151.351562 167.910156 C 162.894531 174.585938 174.832031 181.488281 186.617188 188.046875 C 187.046875 188.226562 188.226562 188.183594 188.640625 187.976562 C 201.824219 180.625 215.679688 172.65625 229.796875 164.296875 C 230.109375 164.078125 230.621094 163.300781 230.679688 163.050781 C 230.886719 147.277344 230.886719 131.105469 230.6875 115.042969 C 230.640625 114.667969 230.1875 113.867188 229.953125 113.671875 C 217.347656 106.519531 203.699219 97.730469 187.316406 89.441406 C 175.476562 96.089844 163.820312 102.8125 151.480469 109.925781 L 148.308594 111.753906 C 153.578125 114.804688 158.578125 117.695312 163.589844 120.410156 C 169.941406 117.472656 175.953125 113.515625 181.96875 110.03125 C 184.304688 108.613281 187.9375 107.066406 192.609375 109.960938 Z M 192.609375 109.960938 " fill-opacity="1" fill-rule="nonzero"/></g><g fill="#000000" fill-opacity="1"><g transform="translate(47.282558, 345.17204)"><g><path d="M 12.421875 0 L 4.515625 -7.90625 L 4.515625 -32.734375 L 12.421875 -40.640625 L 47.6875 -40.640625 L 47.6875 -32.734375 L 12.421875 -32.734375 L 12.421875 -24.265625 L 38.515625 -24.265625 L 38.515625 -16.359375 L 12.421875 -16.359375 L 12.421875 -7.90625 L 47.6875 -7.90625 L 47.6875 0 Z M 12.421875 0 "/></g></g></g><g fill="#000000" fill-opacity="1"><g transform="translate(99.467644, 345.17204)"><g><path d="M 4.515625 -15.796875 L 4.515625 -23.703125 L 20.3125 -23.703125 L 20.3125 -15.796875 Z M 4.515625 -15.796875 "/></g></g></g><g fill="#000000" fill-opacity="1"><g transform="translate(124.290827, 345.17204)"><g><path d="M 21.515625 0 L 21.515625 -32.734375 L 4.515625 -32.734375 L 4.515625 -40.640625 L 46.421875 -40.640625 L 46.421875 -32.734375 L 29.421875 -32.734375 L 29.421875 0 Z M 21.515625 0 "/></g></g></g><g fill="#000000" fill-opacity="1"><g transform="translate(175.206552, 345.17204)"><g><path d="M 12.421875 0 L 4.515625 -7.90625 L 4.515625 -32.734375 L 12.421875 -40.640625 L 47.6875 -40.640625 L 47.6875 -32.734375 L 12.421875 -32.734375 L 12.421875 -24.265625 L 38.515625 -24.265625 L 38.515625 -16.359375 L 12.421875 -16.359375 L 12.421875 -7.90625 L 47.6875 -7.90625 L 47.6875 0 Z M 12.421875 0 "/></g></g></g><g fill="#000000" fill-opacity="1"><g transform="translate(227.391638, 345.17204)"><g><path d="M 12.421875 0 L 4.515625 -7.90625 L 4.515625 -32.734375 L 12.421875 -40.640625 L 43.453125 -40.640625 L 43.453125 -32.734375 L 12.421875 -32.734375 L 12.421875 -7.90625 L 43.453125 -7.90625 L 43.453125 0 Z M 12.421875 0 "/></g></g></g><g fill="#000000" fill-opacity="1"><g transform="translate(275.345526, 345.17204)"><g><path d="M 4.515625 0 L 4.515625 -40.640625 L 12.421875 -40.640625 L 12.421875 -24.265625 L 39.921875 -24.265625 L 39.921875 -40.640625 L 47.828125 -40.640625 L 47.828125 0 L 39.921875 0 L 39.921875 -16.359375 L 12.421875 -16.359375 L 12.421875 0 Z M 4.515625 0 "/></g></g></g></svg>